<?xml version="1.0" encoding="iso-8859-1"?>
<!-- Generator: Adobe Illustrator 22.0.1, SVG Export Plug-In . SVG Version: 6.00 Build 0)  -->
<svg version="1.1" id="Layer_1" xmlns="http://www.w3.org/2000/svg" xmlns:xlink="http://www.w3.org/1999/xlink" x="0px" y="0px"
	 viewBox="0 0 100.25 100.25" style="enable-background:new 0 0 100.25 100.25;" xml:space="preserve">
<g>
	<path d="M79.311,49.519c-0.431-0.276-0.971-0.315-1.435-0.102l-18.511,8.475H47.5c-0.829,0-1.5,0.671-1.5,1.5v16
		c0,0.434,0.158,0.696,0.405,1.061l12.78,19.779c0.279,0.413,0.745,0.661,1.243,0.661h7.312c0.504,0,0.975-0.253,1.252-0.675
		c0.278-0.421,0.325-0.954,0.125-1.417l-7.204-16.762l15.962,7.288c0.199,0.091,0.411,0.136,0.623,0.136
		c0.283,0,0.565-0.08,0.811-0.238c0.429-0.276,0.689-0.751,0.689-1.262V50.782C80,50.271,79.74,49.795,79.311,49.519z M49,60.893h10
		c0,0.165,0,0.324,0,0.5v12.5H49V60.893z M61.225,93.893l-11.482-17h8.431c0.015,0.048,0.025,0.097,0.046,0.145l7.244,16.855
		C65.464,93.893,61.225,93.893,61.225,93.893z M77,81.629L62,74.78V59.986l0,0l15-6.868V81.629z"/>
	<path d="M87.094,61.654c0.301,0,0.605-0.09,0.869-0.278l6.575-4.681c0.675-0.48,0.832-1.417,0.352-2.092
		c-0.479-0.674-1.417-0.833-2.092-0.352l-6.575,4.681c-0.675,0.48-0.833,1.417-0.352,2.092
		C86.164,61.434,86.625,61.654,87.094,61.654z"/>
	<path d="M95.5,64.893h-8c-0.829,0-1.5,0.671-1.5,1.5s0.671,1.5,1.5,1.5h8c0.828,0,1.5-0.671,1.5-1.5S96.328,64.893,95.5,64.893z"/>
	<path d="M94.538,76.225l-6.575-4.681c-0.673-0.479-1.611-0.323-2.092,0.352c-0.48,0.675-0.323,1.612,0.352,2.092l6.575,4.681
		c0.264,0.188,0.567,0.278,0.869,0.278c0.469,0,0.931-0.219,1.223-0.63C95.37,77.643,95.213,76.706,94.538,76.225z"/>
	<path d="M34.311,46.414c4.063,0,7.965,0.891,11.597,2.648c0.746,0.362,1.643,0.049,2.003-0.697
		c0.361-0.746,0.049-1.643-0.697-2.003c-4.043-1.956-8.384-2.948-12.904-2.948c-16.438,0-29.811,13.449-29.811,29.979
		c0,0.829,0.671,1.5,1.5,1.5h31.5c0.829,0,1.5-0.671,1.5-1.5s-0.671-1.5-1.5-1.5H7.54C8.316,57.711,20.027,46.414,34.311,46.414z"/>
	<path d="M34.907,39.824c9.633,0,17.47-7.835,17.47-17.466c0-9.63-7.837-17.465-17.47-17.465c-9.628,0-17.462,7.834-17.462,17.465
		C17.445,31.989,25.278,39.824,34.907,39.824z M34.907,7.893c7.979,0,14.47,6.489,14.47,14.465c0,7.977-6.491,14.466-14.47,14.466
		c-7.974,0-14.462-6.49-14.462-14.466C20.445,14.382,26.933,7.893,34.907,7.893z"/>
</g>
</svg>
