<?xml version="1.0" encoding="iso-8859-1"?>
<!-- Generator: Adobe Illustrator 22.0.1, SVG Export Plug-In . SVG Version: 6.00 Build 0)  -->
<svg version="1.1" id="Layer_1" xmlns="http://www.w3.org/2000/svg" xmlns:xlink="http://www.w3.org/1999/xlink" x="0px" y="0px"
	 viewBox="0 0 100.25 100.25" style="enable-background:new 0 0 100.25 100.25;" xml:space="preserve">
<g>
	<path d="M94.376,47.761c-0.607-0.562-1.556-0.527-2.12,0.079L79.709,61.353c-1.74-1.181-3.807-1.779-5.949-1.681
		c-2.535,0.112-4.889,1.169-6.679,2.97c-0.03,0.02-0.065,0.026-0.094,0.049L49.7,75.901c-0.352,0.268-0.566,0.678-0.587,1.119
		c-0.021,0.442,0.153,0.871,0.478,1.172l6.361,5.906l0,0l0,0l4.804,4.46c0.001,0,0.001,0.001,0.001,0.002
		c0.001,0.001,0.001,0.001,0.002,0.001l6.589,6.118c0.279,0.259,0.644,0.4,1.021,0.4c0.06,0,0.12-0.004,0.18-0.011
		c0.438-0.053,0.831-0.296,1.073-0.665L81.574,76.24c0.074-0.112,0.112-0.235,0.153-0.357c3.006-3.658,3.033-8.876,0.18-12.487
		l12.548-13.515C95.019,49.274,94.984,48.326,94.376,47.761z M73.893,62.668c1.846-0.065,3.613,0.562,4.96,1.812
		c2.414,2.242,2.827,5.854,1.181,8.622l-9.867-9.162C71.258,63.175,72.539,62.729,73.893,62.668z M68.091,91.274l-4.193-3.893
		l6.673-7.186c0.564-0.607,0.529-1.556-0.079-2.12c-0.607-0.562-1.557-0.527-2.12,0.079l-6.673,7.186l-2.607-2.421l6.673-7.187
		c0.564-0.607,0.529-1.556-0.079-2.12c-0.607-0.562-1.556-0.528-2.12,0.079l-6.673,7.187l-3.958-3.675l14.869-11.361l10.565,9.81
		L68.091,91.274z"/>
	<path d="M44.172,62.786c-1.298,0-2.351,1.052-2.351,2.351c0,1.298,1.052,2.351,2.351,2.351c1.298,0,2.351-1.052,2.351-2.351
		C46.523,63.839,45.471,62.786,44.172,62.786z"/>
	<path d="M53.178,92.038c-1.298,0-2.351,1.052-2.351,2.351c0,1.298,1.052,2.35,2.351,2.35c1.298,0,2.351-1.052,2.351-2.35
		C55.528,93.091,54.476,92.038,53.178,92.038z"/>
	<path d="M89.556,90.812c-1.298,0-2.351,1.053-2.351,2.351s1.052,2.351,2.351,2.351c1.298,0,2.351-1.052,2.351-2.351
		C91.906,91.864,90.854,90.812,89.556,90.812z"/>
	<path d="M38.427,39.688c9.947,0,18.04-8.092,18.04-18.037S48.374,3.615,38.427,3.615c-9.943,0-18.033,8.091-18.033,18.036
		S28.484,39.688,38.427,39.688z M38.427,6.615c8.293,0,15.04,6.745,15.04,15.036s-6.747,15.037-15.04,15.037
		c-8.289,0-15.033-6.746-15.033-15.037S30.138,6.615,38.427,6.615z"/>
	<path d="M39.934,47.629c7.334,0,14.372,2.701,19.816,7.606c0.616,0.557,1.565,0.507,2.118-0.11c0.555-0.615,0.505-1.563-0.11-2.118
		c-5.996-5.402-13.747-8.378-21.824-8.378c-17.981,0-32.611,14.629-32.611,32.61c0,0.828,0.671,1.5,1.5,1.5h29
		c0.829,0,1.5-0.672,1.5-1.5s-0.671-1.5-1.5-1.5H10.361C11.145,60.107,24.11,47.629,39.934,47.629z"/>
</g>
</svg>
