<?xml version="1.0" encoding="iso-8859-1"?>
<!-- Generator: Adobe Illustrator 22.0.1, SVG Export Plug-In . SVG Version: 6.00 Build 0)  -->
<svg version="1.1" id="Layer_1" xmlns="http://www.w3.org/2000/svg" xmlns:xlink="http://www.w3.org/1999/xlink" x="0px" y="0px"
	 viewBox="0 0 100.25 100.25" style="enable-background:new 0 0 100.25 100.25;" xml:space="preserve">
<g>
	<path d="M94.879,67.116c-0.284-0.282-0.663-0.458-1.069-0.435l-6.467,0.058h-13.02v-6.5c0-0.829-0.672-1.5-1.5-1.5h-31
		c-0.828,0-1.5,0.671-1.5,1.5v28c0,0.829,0.672,1.5,1.5,1.5h6.128c0.257,3.075,2.838,5.5,5.979,5.5c3.136,0,5.712-2.425,5.969-5.5
		h12.924c0.176,0,0.343-0.036,0.5-0.092c0.157,0.056,0.324,0.092,0.5,0.092h4.355c0.257,3.075,2.839,5.5,5.98,5.5
		c3.136,0,5.712-2.425,5.969-5.5h3.696c0.828,0,1.5-0.671,1.5-1.5V68.181C95.324,67.781,95.163,67.398,94.879,67.116z M43.324,61.74
		h28v25H59.375c-0.948-2.067-3.029-3.508-5.444-3.508c-2.42,0-4.504,1.441-5.454,3.508h-5.153L43.324,61.74L43.324,61.74z
		 M53.931,92.24c-1.657,0-3.005-1.347-3.005-3.002c0-1.657,1.348-3.005,3.005-3.005c1.651,0,2.994,1.348,2.994,3.005
		C56.925,90.893,55.582,92.24,53.931,92.24z M84.159,92.24c-1.657,0-3.006-1.347-3.006-3.002c0-0.133,0.022-0.26,0.039-0.388
		c0.075-0.169,0.118-0.355,0.126-0.55c0.397-1.196,1.513-2.067,2.841-2.067c1.651,0,2.994,1.348,2.994,3.005
		C87.153,90.893,85.81,92.24,84.159,92.24z M92.324,86.74h-2.721c-0.948-2.067-3.029-3.508-5.444-3.508
		c-2.42,0-4.505,1.441-5.455,3.508h-4.38v-17h13.033l4.967-0.044V86.74z"/>
	<path d="M35.228,47.328c4.383,0,8.592,0.956,12.511,2.84c0.749,0.359,1.645,0.044,2.002-0.702c0.359-0.747,0.045-1.643-0.701-2.002
		c-4.329-2.081-8.976-3.136-13.812-3.136c-17.597,0-31.913,14.315-31.913,31.912c0,0.829,0.672,1.5,1.5,1.5h28.009
		c0.828,0,1.5-0.671,1.5-1.5s-0.672-1.5-1.5-1.5H6.353C7.136,59.492,19.788,47.328,35.228,47.328z"/>
	<path d="M34.694,41.492c10.169,0,18.442-8.272,18.442-18.439S44.863,4.615,34.694,4.615c-10.165,0-18.435,8.271-18.435,18.438
		S24.529,41.492,34.694,41.492z M34.694,7.614c8.515,0,15.442,6.926,15.442,15.438c0,8.513-6.928,15.439-15.442,15.439
		c-8.511,0-15.435-6.926-15.435-15.439C19.259,14.54,26.183,7.614,34.694,7.614z"/>
</g>
</svg>
