<?xml version="1.0" encoding="iso-8859-1"?>
<!-- Generator: Adobe Illustrator 22.0.1, SVG Export Plug-In . SVG Version: 6.00 Build 0)  -->
<svg version="1.1" id="Layer_1" xmlns="http://www.w3.org/2000/svg" xmlns:xlink="http://www.w3.org/1999/xlink" x="0px" y="0px"
	 viewBox="0 0 100.25 100.25" style="enable-background:new 0 0 100.25 100.25;" xml:space="preserve">
<g>
	<path d="M68.152,62.067c-0.516-0.274-1.345-0.714-1.542-0.795c-4.591-2.221-9.738-3.468-15.17-3.468
		c-19.281,0-34.964,15.694-34.947,34.978c0.001,0.816,0.684,1.468,1.5,1.468h66.896c0.816,0,1.499-0.652,1.5-1.468
		C86.399,79.548,79.016,68.008,68.152,62.067z M36,77.25h29v14H36C36,91.25,36,77.25,36,77.25z M65,63.99v10.26H36v-9.5
		c0-0.043-0.009-0.083-0.013-0.125c4.506-2.434,9.657-3.821,15.128-3.821C56.09,60.804,60.799,61.954,65,63.99z M33,66.459V91.25
		H19.203C19.681,80.977,25.039,71.962,33,66.459z M68,91.25v-25.6c8.638,5.401,14.527,14.806,15.028,25.6H68z"/>
	<path d="M30.325,35.25h0.476c0.747,10.425,9.442,18.684,20.051,18.684c10.613,0,19.312-8.259,20.06-18.684h0.476
		c2.052,0,3.659-2.041,3.659-4.647c0-1.972-0.922-3.616-2.259-4.301c-0.604-9.28-6.95-17.16-15.937-19.696
		c-0.964-2.385-3.3-4.075-6.026-4.075c-2.734,0-5.075,1.7-6.034,4.096c-8.948,2.559-15.262,10.421-15.864,19.675
		c-1.337,0.685-2.259,2.33-2.259,4.301C26.666,33.209,28.274,35.25,30.325,35.25z M50.852,50.934
		c-8.954,0-16.312-6.914-17.051-15.684h34.11C67.173,44.02,59.811,50.934,50.852,50.934z M71.394,32.25H30.319
		c-0.153-0.023-0.66-0.584-0.66-1.648c0-0.675,0.203-1.124,0.392-1.384c0.099,0.021,0.201,0.032,0.307,0.032h40.997
		c0.105,0,0.208-0.011,0.306-0.032c0.189,0.261,0.392,0.709,0.392,1.384C72.053,31.666,71.546,32.226,71.394,32.25z M69.466,26.25
		H57V9.899C63.997,12.419,68.885,18.792,69.466,26.25z M54,9.11v17.14h-7V9.03c0-2.298,2.228-4.086,4.635-3.32
		C53.08,6.17,54,7.594,54,9.11z M44,9.924V26.25H31.6C32.179,18.816,37.039,12.461,44,9.924z"/>
</g>
</svg>
