<?xml version="1.0" encoding="iso-8859-1"?>
<!-- Generator: Adobe Illustrator 22.0.1, SVG Export Plug-In . SVG Version: 6.00 Build 0)  -->
<svg version="1.1" id="Layer_1" xmlns="http://www.w3.org/2000/svg" xmlns:xlink="http://www.w3.org/1999/xlink" x="0px" y="0px"
	 viewBox="0 0 100.25 100.25" style="enable-background:new 0 0 100.25 100.25;" xml:space="preserve">
<g>
	<path d="M90.653,56.587L70.52,43.228c-0.512-0.34-1.18-0.333-1.686,0.019L43.967,60.559c-0.403,0.28-0.643,0.74-0.643,1.231v17.85
		c0,0.491,0.24,0.95,0.643,1.23l19.171,13.361c0.257,0.18,0.557,0.27,0.857,0.27c0.281,0,0.562-0.079,0.809-0.236l25.828-16.53
		c0.431-0.276,0.691-0.752,0.691-1.264V57.837C91.324,57.335,91.072,56.865,90.653,56.587z M69.711,46.292L86.708,57.57
		l-9.465,6.292L61.398,52.079L69.711,46.292z M64.234,72.508l-16.568-10.87l11.136-7.752l15.787,11.74L64.234,72.508z
		 M46.324,64.346l16,10.496v15.164l-16-11.151V64.346z M65.324,90.369V75.386l23-15.288V75.65L65.324,90.369z"/>
	<path d="M37.824,75.739H7.865C8.641,61.523,20.38,50.197,34.698,50.197c4.071,0,7.982,0.893,11.625,2.655
		c0.746,0.361,1.643,0.049,2.003-0.698c0.36-0.746,0.048-1.643-0.698-2.003c-4.053-1.96-8.403-2.954-12.931-2.954
		c-16.472,0-29.874,13.477-29.874,30.042c0,0.829,0.671,1.5,1.5,1.5h31.5c0.829,0,1.5-0.671,1.5-1.5S38.652,75.739,37.824,75.739z"
		/>
	<path d="M35.295,44.241c9.652,0,17.505-7.851,17.505-17.501s-7.853-17.5-17.505-17.5c-9.648,0-17.498,7.851-17.498,17.5
		C17.797,36.39,25.647,44.241,35.295,44.241z M35.295,12.239c7.998,0,14.505,6.505,14.505,14.5c0,7.996-6.507,14.501-14.505,14.501
		c-7.994,0-14.498-6.505-14.498-14.501C20.797,18.744,27.301,12.239,35.295,12.239z"/>
</g>
</svg>
