<?xml version="1.0" encoding="iso-8859-1"?>
<!-- Generator: Adobe Illustrator 22.0.1, SVG Export Plug-In . SVG Version: 6.00 Build 0)  -->
<svg version="1.1" id="Layer_1" xmlns="http://www.w3.org/2000/svg" xmlns:xlink="http://www.w3.org/1999/xlink" x="0px" y="0px"
	 viewBox="0 0 100.25 100.25" style="enable-background:new 0 0 100.25 100.25;" xml:space="preserve">
<g>
	<path style="fill:#231F20;" d="M50.352,62.245c-18.277,0-33.147,14.87-33.147,33.148c0,0.828,0.672,1.5,1.5,1.5h63.296
		c0.828,0,1.5-0.672,1.5-1.5C83.5,77.115,68.63,62.245,50.352,62.245z M20.241,93.893c0.784-15.93,13.99-28.648,30.11-28.648
		c16.121,0,29.327,12.719,30.111,28.648H20.241z"/>
	<path style="fill:#231F20;" d="M49.803,59.005c10.546,0,19.125-8.582,19.125-19.132c0-3.619-1.018-7.111-2.928-10.154V6.392
		c0-0.828-0.672-1.5-1.5-1.5h-29c-0.828,0-1.5,0.672-1.5,1.5v22.741c-0.052,0.057-0.104,0.114-0.147,0.18
		c-2.08,3.137-3.179,6.788-3.179,10.56C30.674,50.423,39.255,59.005,49.803,59.005z M37,7.893h26v21H37V7.893z M35.79,31.893h28.031
		c1.382,2.424,2.107,5.158,2.107,7.98c0,8.896-7.233,16.132-16.125,16.132c-8.894,0-16.129-7.236-16.129-16.132
		C33.674,37.056,34.405,34.319,35.79,31.893z"/>
	<path style="fill:#231F20;" d="M55.5,15.893H52v-3.5c0-0.828-0.672-1.5-1.5-1.5s-1.5,0.672-1.5,1.5v3.5h-4.5
		c-0.828,0-1.5,0.672-1.5,1.5s0.672,1.5,1.5,1.5H49v4.5c0,0.828,0.672,1.5,1.5,1.5s1.5-0.672,1.5-1.5v-4.5h3.5
		c0.828,0,1.5-0.672,1.5-1.5S56.328,15.893,55.5,15.893z"/>
</g>
</svg>
