<?xml version="1.0" encoding="iso-8859-1"?>
<!-- Generator: Adobe Illustrator 22.0.1, SVG Export Plug-In . SVG Version: 6.00 Build 0)  -->
<svg version="1.1" id="Layer_1" xmlns="http://www.w3.org/2000/svg" xmlns:xlink="http://www.w3.org/1999/xlink" x="0px" y="0px"
	 viewBox="0 0 100.25 100.25" style="enable-background:new 0 0 100.25 100.25;" xml:space="preserve">
<g>
	<path d="M44.823,71.74H15.118c0.776-14.225,12.521-25.558,26.848-25.558c4.074,0,7.987,0.894,11.632,2.656
		c0.747,0.36,1.642,0.049,2.003-0.697c0.36-0.746,0.048-1.643-0.698-2.004c-4.055-1.961-8.408-2.955-12.938-2.955
		c-16.48,0-29.889,13.483-29.889,30.058c0,0.828,0.671,1.5,1.5,1.5h31.246c0.829,0,1.5-0.672,1.5-1.5S45.652,71.74,44.823,71.74z"/>
	<path d="M42.565,39.759c9.657,0,17.513-7.855,17.513-17.511c0-9.654-7.856-17.509-17.513-17.509
		c-9.653,0-17.506,7.854-17.506,17.509C25.059,31.904,32.912,39.759,42.565,39.759z M42.565,7.74
		c8.002,0,14.513,6.509,14.513,14.509c0,8.001-6.511,14.511-14.513,14.511c-7.999,0-14.506-6.51-14.506-14.511
		C28.059,14.248,34.566,7.74,42.565,7.74z"/>
	<path d="M85.823,53.74h-34c-0.829,0-1.5,0.672-1.5,1.5v32c0,0.828,0.671,1.5,1.5,1.5h10.5v7.107c0,0.62,0.381,1.176,0.96,1.399
		c0.176,0.067,0.358,0.101,0.54,0.101c0.416,0,0.822-0.173,1.112-0.492l9.526-8.074c0.35,0,11.363-0.041,11.363-0.041
		c0.829,0,1.5-0.672,1.5-1.5v-32C87.323,54.411,86.652,53.74,85.823,53.74z M84.323,85.74H74.088c-0.263,0-0.724,0.01-1.338,0.503
		l-7.427,5.718V87.24c0-0.828-0.671-1.5-1.5-1.5c-0.268,0-10.501,0-10.501,0v-29h31L84.323,85.74L84.323,85.74z"/>
	<path d="M65.323,67.211c0.829,0,1.5-0.672,1.5-1.5c0-1.304,1.061-2.364,2.364-2.364s2.365,1.061,2.365,2.364
		c0,1.267-1.003,2.305-2.258,2.362c-0.036,0.002-0.476,0.002-0.512,0.002c-0.701,0-1.363,0.369-1.45,1.133
		c0,0.401-0.01,4.031-0.01,4.031c0,0.828,0.671,1.5,1.5,1.5s1.5-0.672,1.5-1.5v-2.291c2.413-0.523,4.229-2.67,4.229-5.238
		c0-2.958-2.407-5.364-5.365-5.364s-5.364,2.406-5.364,5.364C63.823,66.539,64.495,67.211,65.323,67.211z"/>
	<circle cx="68.823" cy="79.24" r="2.5"/>
</g>
</svg>
