<?xml version="1.0" encoding="iso-8859-1"?>
<!-- Generator: Adobe Illustrator 22.0.1, SVG Export Plug-In . SVG Version: 6.00 Build 0)  -->
<svg version="1.1" id="Layer_1" xmlns="http://www.w3.org/2000/svg" xmlns:xlink="http://www.w3.org/1999/xlink" x="0px" y="0px"
	 viewBox="0 0 100.25 100.25" style="enable-background:new 0 0 100.25 100.25;" xml:space="preserve">
<g>
	<path d="M86.009,46.891c-0.612-0.558-1.562-0.512-2.119,0.101L71.303,60.838l-6.252-6.14c-0.591-0.581-1.54-0.573-2.121,0.02
		c-0.581,0.591-0.572,1.541,0.02,2.121l7.365,7.232c0.281,0.276,0.658,0.43,1.051,0.43c0.014,0,0.028,0,0.042,0
		c0.408-0.012,0.793-0.189,1.067-0.491l13.635-15C86.667,48.396,86.622,47.448,86.009,46.891z"/>
	<path d="M74.619,85.478l8.398-8.418c0.585-0.586,0.584-1.537-0.002-2.122c-0.587-0.585-1.537-0.584-2.122,0.002L72.5,83.353
		l-8.392-8.413c-0.585-0.587-1.535-0.587-2.122-0.002s-0.587,1.535-0.002,2.122l8.397,8.418l-8.443,8.463
		c-0.585,0.586-0.584,1.537,0.002,2.122c0.293,0.292,0.676,0.438,1.06,0.438s0.769-0.147,1.062-0.44l8.438-8.458l8.438,8.458
		c0.293,0.293,0.678,0.44,1.062,0.44c0.383,0,0.767-0.146,1.06-0.438c0.586-0.585,0.587-1.535,0.002-2.122L74.619,85.478z"/>
	<path d="M56.5,59.5c0.829,0,1.5-0.671,1.5-1.5s-0.671-1.5-1.5-1.5c-3.584,0-6.5,3.161-6.5,7.045v16.909
		c0,3.885,2.916,7.045,6.5,7.045c0.829,0,1.5-0.671,1.5-1.5s-0.671-1.5-1.5-1.5c-1.93,0-3.5-1.815-3.5-4.045V63.545
		C53,61.315,54.57,59.5,56.5,59.5z"/>
	<path d="M42.5,79.893H7.535c0.78-16.676,14.507-30,31.27-30c4.743,0,9.299,1.041,13.542,3.093c0.748,0.361,1.643,0.049,2.004-0.697
		c0.36-0.746,0.048-1.643-0.697-2.004c-4.654-2.25-9.649-3.392-14.849-3.392C19.889,46.893,4.5,62.37,4.5,81.393
		c0,0.829,0.671,1.5,1.5,1.5h36.5c0.829,0,1.5-0.671,1.5-1.5S43.329,79.893,42.5,79.893z"/>
	<path d="M39.496,2.5c-11.025,0-19.996,8.972-19.996,20s8.97,20,19.996,20c11.03,0,20.004-8.972,20.004-20
		C59.5,11.472,50.526,2.5,39.496,2.5z M39.496,39.5c-9.372,0-16.996-7.626-16.996-17s7.624-17,16.996-17
		c9.376,0,17.004,7.626,17.004,17S48.872,39.5,39.496,39.5z"/>
</g>
</svg>
