<?xml version="1.0" encoding="iso-8859-1"?>
<!-- Generator: Adobe Illustrator 22.0.1, SVG Export Plug-In . SVG Version: 6.00 Build 0)  -->
<svg version="1.1" id="Layer_1" xmlns="http://www.w3.org/2000/svg" xmlns:xlink="http://www.w3.org/1999/xlink" x="0px" y="0px"
	 viewBox="0 0 100.25 100.25" style="enable-background:new 0 0 100.25 100.25;" xml:space="preserve">
<g>
	<path d="M38.5,71.893H7.414c0.783-14.982,13.219-26.93,28.393-26.93c4.31,0,8.449,0.939,12.303,2.792
		c0.745,0.357,1.643,0.044,2.002-0.702s0.044-1.643-0.702-2.002c-4.262-2.049-8.839-3.088-13.603-3.088
		c-17.332,0-31.432,14.1-31.432,31.43c0,0.829,0.671,1.5,1.5,1.5H38.5c0.829,0,1.5-0.671,1.5-1.5S39.329,71.893,38.5,71.893z"/>
	<path d="M35.281,38.982c10.021,0,18.174-8.152,18.174-18.171s-8.153-18.17-18.174-18.17c-10.017,0-18.166,8.151-18.166,18.17
		S25.265,38.982,35.281,38.982z M35.281,5.641c8.367,0,15.174,6.805,15.174,15.17c0,8.366-6.807,15.171-15.174,15.171
		c-8.363,0-15.166-6.806-15.166-15.171C20.115,12.446,26.918,5.641,35.281,5.641z"/>
	<path d="M93.5,55.893H86v-10.5c0-0.829-0.671-1.5-1.5-1.5h-8c-0.829,0-1.5,0.671-1.5,1.5v10.5H46.5c-0.829,0-1.5,0.671-1.5,1.5v38
		c0,0.829,0.671,1.5,1.5,1.5h47c0.829,0,1.5-0.671,1.5-1.5v-38C95,56.564,94.329,55.893,93.5,55.893z M78,46.893h5v19h-5V46.893z
		 M75,58.893v8.5c0,0.829,0.671,1.5,1.5,1.5h8c0.829,0,1.5-0.671,1.5-1.5v-8.5h6v24H48v-24C48,58.893,75,58.893,75,58.893z
		 M48,93.893v-8h44v8H48z"/>
	<path d="M66.5,68.893h1c0.829,0,1.5-0.671,1.5-1.5s-0.671-1.5-1.5-1.5h-1c-0.829,0-1.5,0.671-1.5,1.5S65.671,68.893,66.5,68.893z"
		/>
	<path d="M66.5,75.893h1c0.829,0,1.5-0.671,1.5-1.5s-0.671-1.5-1.5-1.5h-1c-0.829,0-1.5,0.671-1.5,1.5S65.671,75.893,66.5,75.893z"
		/>
	<path d="M55.5,68.893h1c0.829,0,1.5-0.671,1.5-1.5s-0.671-1.5-1.5-1.5h-1c-0.829,0-1.5,0.671-1.5,1.5S54.671,68.893,55.5,68.893z"
		/>
	<path d="M55.5,75.893h1c0.829,0,1.5-0.671,1.5-1.5s-0.671-1.5-1.5-1.5h-1c-0.829,0-1.5,0.671-1.5,1.5S54.671,75.893,55.5,75.893z"
		/>
</g>
</svg>
