<?xml version="1.0" encoding="iso-8859-1"?>
<!-- Generator: Adobe Illustrator 22.0.1, SVG Export Plug-In . SVG Version: 6.00 Build 0)  -->
<svg version="1.1" id="Layer_1" xmlns="http://www.w3.org/2000/svg" xmlns:xlink="http://www.w3.org/1999/xlink" x="0px" y="0px"
	 viewBox="0 0 100.25 100.25" style="enable-background:new 0 0 100.25 100.25;" xml:space="preserve">
<g>
	<path d="M65.503,73.896l-2-0.003c-0.001,0-0.002,0-0.003,0c-0.827,0-1.499,0.67-1.5,1.498c-0.001,0.828,0.669,1.501,1.497,1.502
		l2,0.003c0.001,0,0.002,0,0.003,0c0.827,0,1.499-0.67,1.5-1.498C67.001,74.571,66.331,73.898,65.503,73.896z"/>
	<path d="M72.503,73.896l-2-0.003c-0.001,0-0.002,0-0.003,0c-0.827,0-1.499,0.67-1.5,1.498c-0.001,0.828,0.669,1.501,1.497,1.502
		l2,0.003c0.001,0,0.002,0,0.003,0c0.827,0,1.499-0.67,1.5-1.498C74.001,74.571,73.331,73.898,72.503,73.896z"/>
	<path d="M79.503,73.896l-2-0.003c-0.001,0-0.002,0-0.003,0c-0.827,0-1.499,0.67-1.5,1.498c-0.001,0.828,0.669,1.501,1.497,1.502
		l2,0.003c0.001,0,0.002,0,0.003,0c0.827,0,1.499-0.67,1.5-1.498C81.001,74.571,80.331,73.898,79.503,73.896z"/>
	<path d="M65.503,80.896l-2-0.003c-0.001,0-0.002,0-0.003,0c-0.827,0-1.499,0.67-1.5,1.498c-0.001,0.828,0.669,1.501,1.497,1.502
		l2,0.003c0.001,0,0.002,0,0.003,0c0.827,0,1.499-0.67,1.5-1.498C67.001,81.571,66.331,80.898,65.503,80.896z"/>
	<path d="M72.503,80.896l-2-0.003c-0.001,0-0.002,0-0.003,0c-0.827,0-1.499,0.67-1.5,1.498c-0.001,0.828,0.669,1.501,1.497,1.502
		l2,0.003c0.001,0,0.002,0,0.003,0c0.827,0,1.499-0.67,1.5-1.498C74.001,81.571,73.331,80.898,72.503,80.896z"/>
	<path d="M79.503,80.896l-2-0.003c-0.001,0-0.002,0-0.003,0c-0.827,0-1.499,0.67-1.5,1.498c-0.001,0.828,0.669,1.501,1.497,1.502
		l2,0.003c0.001,0,0.002,0,0.003,0c0.827,0,1.499-0.67,1.5-1.498C81.001,81.571,80.331,80.898,79.503,80.896z"/>
	<path d="M88.563,56.382c-0.281-0.282-0.662-0.44-1.061-0.441l-31.941-0.048c-0.001,0-0.001,0-0.002,0
		c-0.827,0-1.499,0.67-1.5,1.498L54,94.343c-0.001,0.398,0.157,0.78,0.438,1.062s0.662,0.44,1.061,0.441l31.94,0.048
		c0.001,0,0.001,0,0.002,0c0.827,0,1.499-0.67,1.5-1.498l0.06-36.952C89.001,57.046,88.843,56.664,88.563,56.382z M85.998,58.939
		l-0.011,6.954H57.046l0.011-6.998L85.998,58.939z M57.002,92.848l0.039-23.955h28.941l-0.039,23.998L57.002,92.848z"/>
	<path d="M55.278,46.294c0.36-0.746,0.049-1.643-0.697-2.003c-4.055-1.961-8.407-2.956-12.938-2.956
		c-16.48,0-29.889,13.484-29.889,30.058c0,0.829,0.672,1.5,1.5,1.5h31.245c0.828,0,1.5-0.671,1.5-1.5s-0.672-1.5-1.5-1.5H14.795
		c0.776-14.224,12.521-25.558,26.848-25.558c4.074,0,7.987,0.894,11.631,2.656C54.022,47.352,54.918,47.038,55.278,46.294z"/>
	<path d="M42.241,37.912c9.657,0,17.514-7.855,17.514-17.51c0-9.654-7.856-17.509-17.514-17.509
		c-9.652,0-17.506,7.854-17.506,17.509C24.735,30.057,32.589,37.912,42.241,37.912z M42.241,5.893
		c8.003,0,14.514,6.509,14.514,14.509c0,8.001-6.511,14.51-14.514,14.51c-7.999,0-14.506-6.509-14.506-14.51
		C27.735,12.402,34.242,5.893,42.241,5.893z"/>
</g>
</svg>
