<?xml version="1.0" encoding="iso-8859-1"?>
<!-- Generator: Adobe Illustrator 22.0.1, SVG Export Plug-In . SVG Version: 6.00 Build 0)  -->
<svg version="1.1" id="Layer_1" xmlns="http://www.w3.org/2000/svg" xmlns:xlink="http://www.w3.org/1999/xlink" x="0px" y="0px"
	 viewBox="0 0 100.25 100.25" style="enable-background:new 0 0 100.25 100.25;" xml:space="preserve">
<g>
	<path d="M47.307,55.322c4.687,0,9.188,1.022,13.378,3.037c0.749,0.36,1.645,0.045,2.002-0.702c0.359-0.747,0.045-1.643-0.701-2.001
		c-4.6-2.212-9.538-3.333-14.679-3.333c-18.703,0-33.92,15.215-33.92,33.918c0,0.829,0.672,1.5,1.5,1.5h29.937
		c0.828,0,1.5-0.671,1.5-1.5s-0.672-1.5-1.5-1.5h-28.4C17.207,68.385,30.76,55.322,47.307,55.322z"/>
	<path d="M28.16,23.61c-0.636,1.953-0.974,3.986-0.974,6.058c0,10.784,8.771,19.557,19.552,19.557
		c10.785,0,19.56-8.773,19.56-19.557c0-2.118-0.347-4.195-1.011-6.185l2.754-6.022c0.318-0.697,0.061-1.522-0.599-1.914
		L47.507,3.707c-0.471-0.28-1.061-0.28-1.531,0l-19.935,11.84c-0.653,0.388-0.913,1.202-0.606,1.896L28.16,23.61z M46.738,46.225
		c-9.127,0-16.552-7.428-16.552-16.557c0-1.341,0.17-2.662,0.485-3.949c0.052,0.005,0.1,0.021,0.153,0.021h31.997
		c0.311,1.28,0.477,2.594,0.477,3.928C63.297,38.797,55.868,46.225,46.738,46.225z M46.741,6.742l18.01,10.697l-2.425,5.301H31.055
		l-2.339-5.292L46.741,6.742z"/>
	<path d="M78.806,67.082c-3.696-2.311-8.071-3.044-12.319-2.064c-4.247,0.979-7.859,3.555-10.171,7.25s-3.045,8.068-2.065,12.315
		c0.979,4.247,3.554,7.859,7.25,10.17c2.685,1.679,5.673,2.479,8.628,2.479c5.442,0,10.769-2.715,13.859-7.658
		C88.759,81.943,86.435,71.854,78.806,67.082z M58.859,73.859c1.887-3.017,4.835-5.119,8.303-5.918
		c1.003-0.231,2.015-0.346,3.019-0.346c2.468,0,4.892,0.69,7.034,2.031c0.001,0,0.001,0,0.001,0c3.364,2.104,5.45,5.477,6.057,9.113
		H57.008C57.29,77.029,57.911,75.374,58.859,73.859z M57.173,83.91c-0.166-0.721-0.257-1.446-0.304-2.17h11.454V94.1
		c-1.806-0.248-3.59-0.862-5.233-1.89C60.074,90.324,57.973,87.376,57.173,83.91z M81.445,87.984
		c-2.297,3.672-6.106,5.823-10.121,6.182V81.74h12.12C83.315,83.888,82.664,86.034,81.445,87.984z"/>
</g>
</svg>
